# xmcd
#
# Track frame offsets: 
#        150
#        16207
#        34487
#        49434
#        73765
#        88912
#        105676
#        124629
#        146903
#        163374
#        187505
#
# Disc length: 2792 seconds
#
# Revision: 0
# Processed by: cddbd v1.5.2PL0 Copyright (c) Steve Scherf et al.
# Submitted via: ExactAudioCopy v1.3
#
DISCID=a00ae60b
DTITLE=Patty Reese - Let In The Sun
DYEAR=2017
DGENRE=Blues
TTITLE0=Is it too Late For Me?
TTITLE1=Your Love
TTITLE2=Soul Satisfier
TTITLE3=I Won't Let You Down
TTITLE4=Open a Window, Let in The Sun 
TTITLE5=Good Neighbor
TTITLE6=Radio Song
TTITLE7=Awesome Sauce
TTITLE8=I Hear a Lie
TTITLE9=Don't Think Twice It's Alright
TTITLE10=Goodbye
EXTD=
EXTT0=
EXTT1=
EXTT2=
EXTT3=
EXTT4=
EXTT5=
EXTT6=
EXTT7=
EXTT8=
EXTT9=
EXTT10=
PLAYORDER=
